<svg width="80" height="15" viewBox="0 0 80 15" fill="none" xmlns="http://www.w3.org/2000/svg">
<path d="M3.61065 14.9435C3.22465 15.1415 2.78665 14.7945 2.86465 14.3515L3.69465 9.6215L0.171653 6.2655C-0.157347 5.9515 0.0136534 5.3775 0.454653 5.3155L5.35265 4.6195L7.53665 0.2925C7.73365 -0.0975 8.26665 -0.0975 8.46365 0.2925L10.6477 4.6195L15.5457 5.3155C15.9867 5.3775 16.1577 5.9515 15.8277 6.2655L12.3057 9.6215L13.1357 14.3515C13.2137 14.7945 12.7757 15.1415 12.3897 14.9435L7.99865 12.6875L3.61065 14.9435Z" fill="black"/>
<path d="M19.6107 14.9435C19.2247 15.1415 18.7867 14.7945 18.8647 14.3515L19.6947 9.6215L16.1717 6.2655C15.8427 5.9515 16.0137 5.3775 16.4547 5.3155L21.3527 4.6195L23.5367 0.2925C23.7337 -0.0975 24.2667 -0.0975 24.4637 0.2925L26.6477 4.6195L31.5457 5.3155C31.9867 5.3775 32.1577 5.9515 31.8277 6.2655L28.3057 9.6215L29.1357 14.3515C29.2137 14.7945 28.7757 15.1415 28.3897 14.9435L23.9987 12.6875L19.6107 14.9435Z" fill="black"/>
<path d="M67.6107 14.9435C67.2247 15.1415 66.7867 14.7945 66.8647 14.3515L67.6947 9.6215L64.1717 6.2655C63.8427 5.9515 64.0137 5.3775 64.4547 5.3155L69.3527 4.6195L71.5367 0.2925C71.7337 -0.0975 72.2667 -0.0975 72.4637 0.2925L74.6477 4.6195L79.5457 5.3155C79.9867 5.3775 80.1577 5.9515 79.8277 6.2655L76.3057 9.6215L77.1357 14.3515C77.2137 14.7945 76.7757 15.1415 76.3897 14.9435L71.9987 12.6875L67.6107 14.9435Z" fill="black"/>
<path d="M51.6107 14.9435C51.2247 15.1415 50.7867 14.7945 50.8647 14.3515L51.6947 9.6215L48.1717 6.2655C47.8427 5.9515 48.0137 5.3775 48.4547 5.3155L53.3527 4.6195L55.5367 0.2925C55.7337 -0.0975 56.2667 -0.0975 56.4637 0.2925L58.6477 4.6195L63.5457 5.3155C63.9867 5.3775 64.1577 5.9515 63.8277 6.2655L60.3057 9.6215L61.1357 14.3515C61.2137 14.7945 60.7757 15.1415 60.3897 14.9435L55.9987 12.6875L51.6107 14.9435Z" fill="black"/>
<path d="M35.6107 14.9435C35.2247 15.1415 34.7867 14.7945 34.8647 14.3515L35.6947 9.6215L32.1717 6.2655C31.8427 5.9515 32.0137 5.3775 32.4547 5.3155L37.3527 4.6195L39.5367 0.2925C39.7337 -0.0975 40.2667 -0.0975 40.4637 0.2925L42.6477 4.6195L47.5457 5.3155C47.9867 5.3775 48.1577 5.9515 47.8277 6.2655L44.3057 9.6215L45.1357 14.3515C45.2137 14.7945 44.7757 15.1415 44.3897 14.9435L39.9987 12.6875L35.6107 14.9435Z" fill="black"/>
</svg>
