<svg width="25" height="16" viewBox="0 0 25 16" fill="none" xmlns="http://www.w3.org/2000/svg">
<path d="M-3.8147e-06 1.5625C-3.8147e-06 1.1481 0.164616 0.750675 0.457642 0.45765C0.750667 0.164624 1.1481 3.99351e-06 1.5625 3.99351e-06H23.4375C23.8519 3.99351e-06 24.2493 0.164624 24.5424 0.45765C24.8354 0.750675 25 1.1481 25 1.5625V14.0625C25 14.4769 24.8354 14.8743 24.5424 15.1674C24.2493 15.4604 23.8519 15.625 23.4375 15.625H1.5625C1.1481 15.625 0.750667 15.4604 0.457642 15.1674C0.164616 14.8743 -3.8147e-06 14.4769 -3.8147e-06 14.0625V1.5625ZM4.6875 1.5625C4.6875 2.39131 4.35826 3.18616 3.77221 3.77221C3.18615 4.35826 2.3913 4.6875 1.5625 4.6875V10.9375C2.3913 10.9375 3.18615 11.2667 3.77221 11.8528C4.35826 12.4388 4.6875 13.2337 4.6875 14.0625H20.3125C20.3125 13.2337 20.6417 12.4388 21.2278 11.8528C21.8138 11.2667 22.6087 10.9375 23.4375 10.9375V4.6875C22.6087 4.6875 21.8138 4.35826 21.2278 3.77221C20.6417 3.18616 20.3125 2.39131 20.3125 1.5625H4.6875Z" fill="black"/>
</svg>
