<svg width="23" height="26" viewBox="0 0 23 26" fill="none" xmlns="http://www.w3.org/2000/svg">
<path d="M1.40625 4.36591C2.65078 3.66001 4.43531 2.8988 6.17063 2.66223C8.04094 2.40658 9.62719 2.78242 10.5469 4.0969V22.6905C9.23203 21.6793 7.56563 21.5401 6.02859 21.7499C4.36922 21.9789 2.69578 22.6294 1.40625 23.2972V4.36591ZM11.9531 4.0969C12.8728 2.78242 14.4591 2.40658 16.3294 2.66223C18.0647 2.8988 19.8492 3.66001 21.0938 4.36591V23.2972C19.8028 22.6294 18.1308 21.977 16.4714 21.7518C14.933 21.5401 13.268 21.6774 11.9531 22.6905V4.0969ZM11.25 2.37224C9.86484 0.756318 7.85672 0.515934 6.02859 0.76395C3.89953 1.05585 1.75078 2.046 0.412031 2.87209C0.289194 2.94788 0.185028 3.07003 0.111967 3.22395C0.0389063 3.37787 3.73661e-05 3.55707 0 3.74014L0 24.7261C3.25715e-05 24.8857 0.0295835 25.0428 0.0859459 25.1829C0.142308 25.323 0.223681 25.4416 0.322609 25.528C0.421537 25.6144 0.53486 25.6657 0.652195 25.6773C0.769531 25.6888 0.887129 25.6602 0.994219 25.5942C2.23453 24.831 4.23281 23.9134 6.16922 23.6482C8.15063 23.3773 9.81141 23.8142 10.7016 25.3214C10.7674 25.4328 10.8509 25.5227 10.9459 25.5845C11.0408 25.6462 11.1447 25.6783 11.25 25.6783C11.3553 25.6783 11.4592 25.6462 11.5541 25.5845C11.6491 25.5227 11.7326 25.4328 11.7984 25.3214C12.6886 23.8142 14.3494 23.3773 16.3294 23.6482C18.2672 23.9134 20.2669 24.831 21.5058 25.5942C21.6129 25.6602 21.7305 25.6888 21.8478 25.6773C21.9651 25.6657 22.0785 25.6144 22.1774 25.528C22.2763 25.4416 22.3577 25.323 22.4141 25.1829C22.4704 25.0428 22.5 24.8857 22.5 24.7261V3.74014C22.5 3.55707 22.4611 3.37787 22.388 3.22395C22.315 3.07003 22.2108 2.94788 22.088 2.87209C20.7492 2.046 18.6005 1.05585 16.4714 0.76395C14.6433 0.514026 12.6352 0.756318 11.25 2.37224Z" fill="black"/>
</svg>
