<svg width="25" height="23" viewBox="0 0 25 23" fill="none" xmlns="http://www.w3.org/2000/svg">
<path d="M16.0828 10.9414H17.396L16.4153 10.068L13.0607 7.08045C13.0607 7.08043 13.0607 7.0804 13.0607 7.08038C13.0367 7.05905 13.0213 7.03689 13.012 7.01687C13.0027 6.99706 12.999 6.97825 12.999 6.96093C12.999 6.94362 13.0027 6.9248 13.012 6.90499C13.0213 6.88495 13.0368 6.86276 13.0607 6.84141C13.0848 6.81996 13.1164 6.80033 13.155 6.78608C13.1936 6.77184 13.2367 6.76396 13.2813 6.76396C13.3258 6.76396 13.3689 6.77184 13.4075 6.78608C13.4461 6.80033 13.4777 6.81996 13.5018 6.84141L18.1893 11.018L18.1897 11.0184C18.2137 11.0397 18.2292 11.0618 18.2385 11.0818C18.2477 11.1015 18.2514 11.1203 18.2514 11.1375C18.2514 11.1547 18.2477 11.1735 18.2385 11.1932C18.2292 11.2132 18.2137 11.2353 18.1897 11.2566L18.1893 11.257L13.5018 15.4336C13.4521 15.4778 13.3735 15.511 13.2812 15.511C13.189 15.511 13.1104 15.4778 13.0607 15.4336C13.013 15.391 12.999 15.3465 12.999 15.3141C12.999 15.2817 13.0129 15.2372 13.0607 15.1946C13.0607 15.1946 13.0607 15.1946 13.0607 15.1945L16.4153 12.207L17.396 11.3336H16.0828H7.03125C6.93922 11.3336 6.86094 11.3005 6.81144 11.2564C6.76384 11.214 6.75 11.1697 6.75 11.1375C6.75 11.1053 6.76384 11.061 6.81144 11.0186C6.86094 10.9745 6.93922 10.9414 7.03125 10.9414H16.0828ZM1.0625 19.4906C1.0625 20.0123 1.29559 20.4991 1.68752 20.8484C2.07757 21.1959 2.59543 21.3828 3.125 21.3828L21.875 21.3828C22.4046 21.3828 22.9224 21.1959 23.3125 20.8484C23.7044 20.4991 23.9375 20.0123 23.9375 19.4906L23.9375 2.78437C23.9375 2.26269 23.7044 1.77584 23.3125 1.42663C22.9224 1.0791 22.4046 0.892181 21.875 0.892181L3.125 0.892181C2.59543 0.892181 2.07757 1.0791 1.68752 1.42663C1.29559 1.77584 1.0625 2.26269 1.0625 2.78437L1.0625 19.4906ZM24.5 19.4906C24.5 20.0766 24.2392 20.6521 23.7521 21.0862C23.2631 21.5219 22.5886 21.775 21.875 21.775L3.125 21.775C2.41137 21.775 1.73695 21.5219 1.24792 21.0862C0.760767 20.6521 0.5 20.0766 0.5 19.4906L0.5 2.78437C0.5 2.19836 0.760767 1.62288 1.24791 1.18883C1.73695 0.753107 2.41137 0.499994 3.125 0.499994L21.875 0.499994C22.5886 0.499994 23.2631 0.753107 23.7521 1.18883C24.2392 1.62288 24.5 2.19836 24.5 2.78437L24.5 19.4906Z" fill="black" stroke="black"/>
</svg>
