<svg width="24" height="22" viewBox="0 0 24 22" fill="none" xmlns="http://www.w3.org/2000/svg">
<path d="M12.8244 0.457479C12.5314 0.164555 12.1341 0 11.7197 0C11.3054 0 10.9081 0.164555 10.6151 0.457479L0.229112 10.8419C0.156475 10.9145 0.0988553 11.0007 0.0595443 11.0956C0.0202332 11.1905 0 11.2923 0 11.395C0 11.4977 0.0202332 11.5994 0.0595443 11.6943C0.0988553 11.7892 0.156475 11.8755 0.229112 11.9481C0.37581 12.0948 0.574775 12.1772 0.782237 12.1772C0.884962 12.1772 0.986681 12.157 1.08159 12.1177C1.17649 12.0784 1.26272 12.0207 1.33536 11.9481L2.34474 10.9372V19.2075C2.34474 19.8291 2.59167 20.4252 3.03121 20.8648C3.47074 21.3043 4.06689 21.5512 4.68849 21.5512H18.751C19.3726 21.5512 19.9687 21.3043 20.4083 20.8648C20.8478 20.4252 21.0947 19.8291 21.0947 19.2075V10.9372L22.1041 11.9481C22.2508 12.0948 22.4498 12.1772 22.6572 12.1772C22.8647 12.1772 23.0637 12.0948 23.2104 11.9481C23.3571 11.8014 23.4395 11.6024 23.4395 11.395C23.4395 11.1875 23.3571 10.9886 23.2104 10.8419L19.5322 7.16529V2.01998C19.5322 1.81278 19.4499 1.61406 19.3034 1.46755C19.1569 1.32104 18.9582 1.23873 18.751 1.23873H17.1885C16.9813 1.23873 16.7826 1.32104 16.6361 1.46755C16.4895 1.61406 16.4072 1.81278 16.4072 2.01998V4.04029L12.8244 0.457479ZM19.5322 9.37467V19.2075C19.5322 19.4147 19.4499 19.6134 19.3034 19.7599C19.1569 19.9064 18.9582 19.9887 18.751 19.9887H4.68849C4.48129 19.9887 4.28257 19.9064 4.13606 19.7599C3.98955 19.6134 3.90724 19.4147 3.90724 19.2075V9.37467L11.7197 1.56217L19.5322 9.37467Z" fill="black"/>
</svg>
