<svg width="24" height="25" viewBox="0 0 24 25" fill="none" xmlns="http://www.w3.org/2000/svg">
<g clip-path="url(#clip0_16_207)">
<path d="M17 9.61875C17 10.8271 16.5259 11.986 15.682 12.8405C14.8381 13.695 13.6935 14.175 12.5 14.175C11.3065 14.175 10.1619 13.695 9.31802 12.8405C8.47411 11.986 8 10.8271 8 9.61875C8 8.41036 8.47411 7.25146 9.31802 6.39699C10.1619 5.54253 11.3065 5.0625 12.5 5.0625C13.6935 5.0625 14.8381 5.54253 15.682 6.39699C16.5259 7.25146 17 8.41036 17 9.61875Z" fill="black"/>
<path fill-rule="evenodd" clip-rule="evenodd" d="M0 12.15C0 8.92762 1.26428 5.83722 3.51472 3.55865C5.76516 1.28009 8.8174 0 12 0C15.1826 0 18.2348 1.28009 20.4853 3.55865C22.7357 5.83722 24 8.92762 24 12.15C24 15.3724 22.7357 18.4628 20.4853 20.7413C18.2348 23.0199 15.1826 24.3 12 24.3C8.8174 24.3 5.76516 23.0199 3.51472 20.7413C1.26428 18.4628 0 15.3724 0 12.15ZM12 1.51875C10.0227 1.51886 8.08555 2.08428 6.4116 3.14993C4.73766 4.21558 3.39492 5.73816 2.53795 7.54241C1.68097 9.34666 1.34458 11.3592 1.5675 13.3485C1.79042 15.3378 2.56358 17.2229 3.798 18.7869C4.863 17.0495 7.2075 15.1875 12 15.1875C16.7925 15.1875 19.1355 17.048 20.202 18.7869C21.4364 17.2229 22.2096 15.3378 22.4325 13.3485C22.6554 11.3592 22.319 9.34666 21.4621 7.54241C20.6051 5.73816 19.2623 4.21558 17.5884 3.14993C15.9145 2.08428 13.9773 1.51886 12 1.51875Z" fill="black"/>
</g>
<defs>
<clipPath id="clip0_16_207">
<rect width="24" height="24.3" fill="white"/>
</clipPath>
</defs>
</svg>
