<svg width="24" height="24" viewBox="0 0 24 24" fill="none" xmlns="http://www.w3.org/2000/svg">
<path d="M4.3095 16.4424V6.02856H2.5485L0 7.82897V9.48384L2.46 7.76639H2.55V16.4424H4.3095ZM9.129 9.0341V8.94241C9.129 8.04293 9.789 7.24096 10.923 7.24096C11.937 7.24096 12.684 7.88137 12.684 8.85071C12.684 9.75892 12.054 10.4532 11.4735 11.0718L7.485 15.3596V16.4424H14.655V15.0015H9.9645V14.9011L12.615 12.0105C13.59 10.9568 14.4705 10.0719 14.4705 8.70662C14.469 7.05757 13.0845 5.82188 10.962 5.82188C8.6025 5.82188 7.422 7.3705 7.422 8.95114V9.0341H9.129ZM18.9675 11.7747H20.1465C21.381 11.7747 22.2075 12.4748 22.215 13.4907C22.23 14.5198 21.39 15.2606 20.0835 15.2519C18.9285 15.2446 18.0945 14.642 18.015 13.8648H16.3725C16.4355 15.3974 17.7795 16.6564 20.0685 16.6564C22.2855 16.6564 24.0315 15.4353 23.9985 13.5359C23.9685 11.8723 22.6155 11.1329 21.672 11.0412V10.9495C22.4745 10.8185 23.6925 9.98889 23.661 8.50722C23.622 6.97461 22.2615 5.80733 20.1225 5.82188C17.8725 5.82916 16.647 7.10269 16.6005 8.58436H18.2745C18.3225 7.85954 19.0215 7.2104 20.0835 7.2104C21.138 7.2104 21.8925 7.84353 21.8925 8.76775C21.9 9.69925 21.1365 10.3775 20.0925 10.3775H18.9675V11.7747Z" fill="black"/>
</svg>
