<svg width="25" height="26" viewBox="0 0 25 26" fill="none" xmlns="http://www.w3.org/2000/svg">
<path d="M4.6875 22.9395C4.0659 22.9395 3.46976 22.6894 3.03022 22.2444C2.59068 21.7994 2.34375 21.1958 2.34375 20.5664V4.74609C2.34375 4.11672 2.59068 3.51313 3.03022 3.0681C3.46976 2.62306 4.0659 2.37305 4.6875 2.37305H17.1875C17.3947 2.37305 17.5934 2.45639 17.7399 2.60473C17.8864 2.75307 17.9688 2.95427 17.9688 3.16406C17.9688 3.37385 17.8864 3.57505 17.7399 3.72339C17.5934 3.87174 17.3947 3.95508 17.1875 3.95508H4.6875C4.4803 3.95508 4.28159 4.03842 4.13507 4.18676C3.98856 4.33511 3.90625 4.5363 3.90625 4.74609V20.5664C3.90625 20.7762 3.98856 20.9774 4.13507 21.1257C4.28159 21.2741 4.4803 21.3574 4.6875 21.3574H20.3125C20.5197 21.3574 20.7184 21.2741 20.8649 21.1257C21.0114 20.9774 21.0938 20.7762 21.0938 20.5664V12.6562C21.0938 12.4465 21.1761 12.2453 21.3226 12.0969C21.4691 11.9486 21.6678 11.8652 21.875 11.8652C22.0822 11.8652 22.2809 11.9486 22.4274 12.0969C22.5739 12.2453 22.6562 12.4465 22.6562 12.6562V20.5664C22.6562 21.1958 22.4093 21.7994 21.9698 22.2444C21.5302 22.6894 20.9341 22.9395 20.3125 22.9395H4.6875Z" fill="black"/>
<path d="M12.6791 16.3804L23.6166 5.30613C23.6892 5.23259 23.7469 5.14528 23.7862 5.04918C23.8255 4.95309 23.8457 4.8501 23.8457 4.74609C23.8457 4.64208 23.8255 4.53909 23.7862 4.443C23.7469 4.34691 23.6892 4.2596 23.6166 4.18605C23.544 4.11251 23.4577 4.05417 23.3628 4.01437C23.2679 3.97456 23.1662 3.95408 23.0635 3.95408C22.9608 3.95408 22.859 3.97456 22.7641 4.01437C22.6692 4.05417 22.583 4.11251 22.5104 4.18605L12.126 14.7018L7.99161 10.5142C7.91897 10.4406 7.83274 10.3823 7.73784 10.3425C7.64293 10.3027 7.54121 10.2822 7.43849 10.2822C7.33576 10.2822 7.23404 10.3027 7.13914 10.3425C7.04423 10.3823 6.958 10.4406 6.88536 10.5142C6.81272 10.5877 6.75511 10.675 6.71579 10.7711C6.67648 10.8672 6.65625 10.9702 6.65625 11.0742C6.65625 11.1782 6.67648 11.2812 6.71579 11.3773C6.75511 11.4734 6.81272 11.5607 6.88536 11.6343L11.5729 16.3804C11.6454 16.454 11.7316 16.5125 11.8266 16.5523C11.9215 16.5922 12.0232 16.6127 12.126 16.6127C12.2287 16.6127 12.3305 16.5922 12.4254 16.5523C12.5203 16.5125 12.6065 16.454 12.6791 16.3804Z" fill="black"/>
</svg>
