<svg width="33" height="31" viewBox="0 0 33 31" fill="none" xmlns="http://www.w3.org/2000/svg">
<rect x="0.5" y="0.5" width="32" height="30" stroke="black"/>
<path d="M21.609 5.70816C23.0896 5.70816 24.5096 6.24806 25.5566 7.20909C26.6036 8.17012 27.1917 9.47355 27.1917 10.8327V21.0816C27.1917 22.4407 26.6036 23.7442 25.5566 24.7052C24.5096 25.6662 23.0896 26.2061 21.609 26.2061H10.4436C8.96298 26.2061 7.543 25.6662 6.49604 24.7052C5.44908 23.7442 4.8609 22.4407 4.8609 21.0816V10.8327C4.8609 9.47355 5.44908 8.17012 6.49604 7.20909C7.543 6.24806 8.96298 5.70816 10.4436 5.70816H21.609ZM10.4436 4C8.46944 4 6.57613 4.71987 5.18018 6.00124C3.78424 7.28261 3 9.02052 3 10.8327V21.0816C3 22.8938 3.78424 24.6317 5.18018 25.913C6.57613 27.1944 8.46944 27.9143 10.4436 27.9143H21.609C23.5832 27.9143 25.4765 27.1944 26.8724 25.913C28.2684 24.6317 29.0526 22.8938 29.0526 21.0816V10.8327C29.0526 9.02052 28.2684 7.28261 26.8724 6.00124C25.4765 4.71987 23.5832 4 21.609 4H10.4436Z" fill="black"/>
<path fill-rule="evenodd" clip-rule="evenodd" d="M8.73529 20.3889C8.73529 20.2268 8.80966 20.0714 8.94204 19.9568C9.07442 19.8422 9.25396 19.7778 9.44117 19.7778H23.5588C23.746 19.7778 23.9256 19.8422 24.058 19.9568C24.1903 20.0714 24.2647 20.2268 24.2647 20.3889C24.2647 20.551 24.1903 20.7064 24.058 20.821C23.9256 20.9356 23.746 21 23.5588 21H9.44117C9.25396 21 9.07442 20.9356 8.94204 20.821C8.80966 20.7064 8.73529 20.551 8.73529 20.3889ZM8.73529 15.5C8.73529 15.3379 8.80966 15.1825 8.94204 15.0679C9.07442 14.9533 9.25396 14.8889 9.44117 14.8889H23.5588C23.746 14.8889 23.9256 14.9533 24.058 15.0679C24.1903 15.1825 24.2647 15.3379 24.2647 15.5C24.2647 15.6621 24.1903 15.8175 24.058 15.9321C23.9256 16.0467 23.746 16.1111 23.5588 16.1111H9.44117C9.25396 16.1111 9.07442 16.0467 8.94204 15.9321C8.80966 15.8175 8.73529 15.6621 8.73529 15.5ZM8.73529 10.6111C8.73529 10.449 8.80966 10.2936 8.94204 10.179C9.07442 10.0644 9.25396 10 9.44117 10H23.5588C23.746 10 23.9256 10.0644 24.058 10.179C24.1903 10.2936 24.2647 10.449 24.2647 10.6111C24.2647 10.7732 24.1903 10.9286 24.058 11.0432C23.9256 11.1578 23.746 11.2222 23.5588 11.2222H9.44117C9.25396 11.2222 9.07442 11.1578 8.94204 11.0432C8.80966 10.9286 8.73529 10.7732 8.73529 10.6111Z" fill="black"/>
</svg>
