<svg width="25" height="26" viewBox="0 0 25 26" fill="none" xmlns="http://www.w3.org/2000/svg">
<g clip-path="url(#clip0_20_27)">
<path d="M12.5 23.7305C10.428 23.7305 8.44086 22.8971 6.97573 21.4136C5.5106 19.9302 4.6875 17.9182 4.6875 15.8203C4.6875 12.7259 5.76562 9.03973 7.40938 6.13828C8.22813 4.69389 9.14688 3.51527 10.0719 2.71477C11.0062 1.90793 11.8313 1.58203 12.5 1.58203C13.1687 1.58203 13.9937 1.90793 14.9281 2.71477C15.8531 3.51527 16.7719 4.69389 17.5906 6.13828C19.2344 9.03973 20.3125 12.7259 20.3125 15.8203C20.3125 17.9182 19.4894 19.9302 18.0243 21.4136C16.5591 22.8971 14.572 23.7305 12.5 23.7305ZM12.5 25.3125C14.9864 25.3125 17.371 24.3124 19.1291 22.5323C20.8873 20.7522 21.875 18.3378 21.875 15.8203C21.875 8.99543 17.1875 0 12.5 0C7.8125 0 3.125 8.99543 3.125 15.8203C3.125 18.3378 4.11272 20.7522 5.87087 22.5323C7.62903 24.3124 10.0136 25.3125 12.5 25.3125Z" fill="black"/>
</g>
<defs>
<clipPath id="clip0_20_27">
<rect width="25" height="25.3125" fill="white"/>
</clipPath>
</defs>
</svg>
