<svg width="24" height="24" viewBox="0 0 24 24" fill="none" xmlns="http://www.w3.org/2000/svg">
<path d="M2 0C1.46957 0 0.960859 0.158035 0.585786 0.43934C0.210714 0.720644 0 1.10218 0 1.5V22.5C0 22.8978 0.210714 23.2794 0.585786 23.5607C0.960859 23.842 1.46957 24 2 24H8V18.75C8 18.5511 8.10536 18.3603 8.29289 18.2197C8.48043 18.079 8.73478 18 9 18H15C15.2652 18 15.5196 18.079 15.7071 18.2197C15.8946 18.3603 16 18.5511 16 18.75V24H22C22.5304 24 23.0391 23.842 23.4142 23.5607C23.7893 23.2794 24 22.8978 24 22.5V1.5C24 1.10218 23.7893 0.720644 23.4142 0.43934C23.0391 0.158035 22.5304 0 22 0L2 0ZM4 3.75C4 3.55109 4.10536 3.36032 4.29289 3.21967C4.48043 3.07902 4.73478 3 5 3H7C7.26522 3 7.51957 3.07902 7.70711 3.21967C7.89464 3.36032 8 3.55109 8 3.75V5.25C8 5.44891 7.89464 5.63968 7.70711 5.78033C7.51957 5.92098 7.26522 6 7 6H5C4.73478 6 4.48043 5.92098 4.29289 5.78033C4.10536 5.63968 4 5.44891 4 5.25V3.75ZM10 3.75C10 3.55109 10.1054 3.36032 10.2929 3.21967C10.4804 3.07902 10.7348 3 11 3H13C13.2652 3 13.5196 3.07902 13.7071 3.21967C13.8946 3.36032 14 3.55109 14 3.75V5.25C14 5.44891 13.8946 5.63968 13.7071 5.78033C13.5196 5.92098 13.2652 6 13 6H11C10.7348 6 10.4804 5.92098 10.2929 5.78033C10.1054 5.63968 10 5.44891 10 5.25V3.75ZM17 3H19C19.2652 3 19.5196 3.07902 19.7071 3.21967C19.8946 3.36032 20 3.55109 20 3.75V5.25C20 5.44891 19.8946 5.63968 19.7071 5.78033C19.5196 5.92098 19.2652 6 19 6H17C16.7348 6 16.4804 5.92098 16.2929 5.78033C16.1054 5.63968 16 5.44891 16 5.25V3.75C16 3.55109 16.1054 3.36032 16.2929 3.21967C16.4804 3.07902 16.7348 3 17 3ZM4 8.25C4 8.05109 4.10536 7.86032 4.29289 7.71967C4.48043 7.57902 4.73478 7.5 5 7.5H7C7.26522 7.5 7.51957 7.57902 7.70711 7.71967C7.89464 7.86032 8 8.05109 8 8.25V9.75C8 9.94891 7.89464 10.1397 7.70711 10.2803C7.51957 10.421 7.26522 10.5 7 10.5H5C4.73478 10.5 4.48043 10.421 4.29289 10.2803C4.10536 10.1397 4 9.94891 4 9.75V8.25ZM11 7.5H13C13.2652 7.5 13.5196 7.57902 13.7071 7.71967C13.8946 7.86032 14 8.05109 14 8.25V9.75C14 9.94891 13.8946 10.1397 13.7071 10.2803C13.5196 10.421 13.2652 10.5 13 10.5H11C10.7348 10.5 10.4804 10.421 10.2929 10.2803C10.1054 10.1397 10 9.94891 10 9.75V8.25C10 8.05109 10.1054 7.86032 10.2929 7.71967C10.4804 7.57902 10.7348 7.5 11 7.5ZM16 8.25C16 8.05109 16.1054 7.86032 16.2929 7.71967C16.4804 7.57902 16.7348 7.5 17 7.5H19C19.2652 7.5 19.5196 7.57902 19.7071 7.71967C19.8946 7.86032 20 8.05109 20 8.25V9.75C20 9.94891 19.8946 10.1397 19.7071 10.2803C19.5196 10.421 19.2652 10.5 19 10.5H17C16.7348 10.5 16.4804 10.421 16.2929 10.2803C16.1054 10.1397 16 9.94891 16 9.75V8.25ZM5 12H7C7.26522 12 7.51957 12.079 7.70711 12.2197C7.89464 12.3603 8 12.5511 8 12.75V14.25C8 14.4489 7.89464 14.6397 7.70711 14.7803C7.51957 14.921 7.26522 15 7 15H5C4.73478 15 4.48043 14.921 4.29289 14.7803C4.10536 14.6397 4 14.4489 4 14.25V12.75C4 12.5511 4.10536 12.3603 4.29289 12.2197C4.48043 12.079 4.73478 12 5 12ZM10 12.75C10 12.5511 10.1054 12.3603 10.2929 12.2197C10.4804 12.079 10.7348 12 11 12H13C13.2652 12 13.5196 12.079 13.7071 12.2197C13.8946 12.3603 14 12.5511 14 12.75V14.25C14 14.4489 13.8946 14.6397 13.7071 14.7803C13.5196 14.921 13.2652 15 13 15H11C10.7348 15 10.4804 14.921 10.2929 14.7803C10.1054 14.6397 10 14.4489 10 14.25V12.75ZM17 12H19C19.2652 12 19.5196 12.079 19.7071 12.2197C19.8946 12.3603 20 12.5511 20 12.75V14.25C20 14.4489 19.8946 14.6397 19.7071 14.7803C19.5196 14.921 19.2652 15 19 15H17C16.7348 15 16.4804 14.921 16.2929 14.7803C16.1054 14.6397 16 14.4489 16 14.25V12.75C16 12.5511 16.1054 12.3603 16.2929 12.2197C16.4804 12.079 16.7348 12 17 12Z" fill="black"/>
</svg>
